<?xml version="1.0" encoding="UTF-8"?>
<svg xmlns="http://www.w3.org/2000/svg" xmlns:xlink="http://www.w3.org/1999/xlink" width="480px" height="267px" viewBox="0 0 270 150" version="1.1">
<g id="surface1">
<path style=" stroke:none;fill-rule:nonzero;fill:rgb(255%,255%,255%);fill-opacity:1;" d="M 116.699219 13.875 C 115.648438 14.851562 114.75 16.125 114.75 16.648438 C 114.75 21.148438 132.898438 33.898438 154.125 44.398438 C 159.074219 46.800781 163.425781 49.125 163.800781 49.5 C 164.25 49.949219 163.726562 51.074219 162.375 52.5 C 159.675781 55.273438 158.925781 61.425781 160.800781 65.023438 C 162.148438 67.648438 165.898438 70.273438 169.425781 70.949219 C 170.699219 71.25 171.75 71.851562 171.75 72.449219 C 171.75 74.25 166.726562 87.300781 163.875 93 C 156.75 107.101562 148.875 115.5 137.175781 121.351562 C 113.25 133.351562 80.550781 131.851562 51.75 117.375 C 40.726562 111.824219 33.75 106.648438 22.050781 95.101562 C 10.949219 84.300781 10.5 83.925781 7.726562 84.148438 C 5.625 84.300781 4.648438 84.824219 3.824219 86.324219 C 2.773438 88.199219 2.851562 88.648438 5.25 93.449219 C 7.199219 97.574219 9.523438 100.351562 16.050781 106.800781 C 27.148438 117.675781 32.324219 121.425781 43.875 127.050781 C 55.648438 132.824219 62.625 135.300781 74.101562 137.625 C 95.773438 142.125 112.050781 141.675781 129.300781 136.050781 L 135.601562 134.023438 L 141.824219 135.601562 C 155.699219 139.050781 165.824219 140.476562 176.625 140.550781 C 192.824219 140.550781 203.324219 138.226562 217.199219 131.550781 C 231.824219 124.574219 243.074219 112.425781 251.699219 94.125 C 257.25 82.5 261.601562 66.75 262.949219 54 C 263.625 47.398438 262.726562 46.574219 252.375 42.675781 C 230.023438 34.5 222.148438 30.226562 202.199219 15.75 C 199.351562 13.726562 196.726562 12 196.5 12 C 195.375 12 192 16.050781 192 17.25 C 192 20.925781 211.351562 34.351562 230.023438 43.648438 L 242.25 49.800781 L 240.449219 51.675781 C 237.824219 54.601562 237 56.550781 237 60.226562 C 237 64.949219 239.398438 68.25 244.351562 70.199219 C 246.523438 71.023438 248.476562 71.925781 248.699219 72.148438 C 249.375 72.898438 244.800781 85.726562 241.425781 92.398438 C 237.074219 101.023438 233.324219 106.425781 227.25 112.5 C 223.050781 116.625 220.425781 118.5 214.351562 121.5 C 205.125 126 198.148438 127.875 186.375 129 C 177.601562 129.75 165.898438 129.148438 158.625 127.5 C 156.976562 127.125 154.273438 126.75 152.699219 126.75 L 149.773438 126.75 L 155.773438 120.824219 C 171.449219 105.300781 182.25 81.75 185.25 56.476562 C 186.449219 46.425781 186.824219 46.800781 170.175781 40.875 C 154.800781 35.324219 142.574219 28.5 123.75 15 C 121.5 13.351562 119.398438 12 119.175781 12 C 118.949219 12 117.824219 12.824219 116.699219 13.875 Z M 116.699219 13.875 "/>
</g>
</svg>
